<?xml version="1.0" standalone="no"?>
<!DOCTYPE svg PUBLIC "-//W3C//DTD SVG 20010904//EN"
 "http://www.w3.org/TR/2001/REC-SVG-20010904/DTD/svg10.dtd">
<svg version="1.0" xmlns="http://www.w3.org/2000/svg"
 width="321.000000pt" height="46.000000pt" viewBox="0 0 321.000000 46.000000"
 preserveAspectRatio="xMidYMid meet">
<metadata>
Created by potrace 1.16, written by Peter Selinger 2001-2019
</metadata>
<g transform="translate(0.000000,46.000000) scale(0.100000,-0.100000)"
fill="#000000" stroke="none">
<path d="M120 248 c25 -104 29 -113 51 -113 21 0 26 9 44 72 11 40 23 75 26
78 4 3 15 -29 26 -72 17 -70 21 -78 44 -81 25 -3 26 1 48 100 13 56 26 109 29
116 3 10 -2 13 -19 10 -20 -3 -25 -13 -39 -78 -16 -75 -22 -79 -34 -25 -24
103 -26 106 -54 103 -24 -3 -29 -10 -46 -76 -21 -82 -28 -80 -47 15 -11 54
-16 63 -34 63 l-22 0 27 -112z"/>
<path d="M425 258 c-21 -57 -40 -109 -42 -116 -3 -7 3 -12 16 -12 14 0 25 9
31 25 8 22 15 25 60 25 45 0 50 -2 56 -25 4 -18 13 -25 30 -25 13 0 24 2 24 5
0 4 -60 171 -75 208 -4 10 -18 17 -35 17 -25 0 -29 -7 -65 -102z"/>
<path d="M630 245 c0 -108 1 -115 20 -115 17 0 20 7 20 50 0 43 3 50 20 50 13
0 33 -19 56 -50 26 -37 42 -50 60 -50 22 0 24 2 13 23 -6 12 -22 36 -35 53
l-23 31 25 11 c19 9 24 19 24 46 0 50 -28 66 -112 66 l-68 0 0 -115z"/>
<path d="M860 245 l0 -115 66 0 c59 0 68 3 95 29 25 26 29 37 29 86 0 49 -4
60 -29 86 -27 26 -36 29 -95 29 l-66 0 0 -115z"/>
<path d="M1206 339 c-51 -40 -28 -86 58 -115 34 -12 46 -21 44 -33 -4 -22 -70
-27 -88 -7 -13 17 -50 22 -50 7 0 -5 9 -19 19 -32 16 -20 29 -24 74 -24 64 0
87 15 87 60 0 39 -9 48 -75 72 -29 11 -50 25 -50 33 0 19 42 25 70 10 12 -7
31 -10 41 -8 17 3 16 6 -8 31 -33 33 -84 36 -122 6z"/>
<path d="M1523 341 c-35 -22 -46 -46 -45 -104 1 -71 61 -119 126 -103 28 7 66
43 66 62 0 16 -34 28 -38 14 -14 -42 -72 -53 -96 -18 -36 51 -9 128 44 128 18
0 34 -8 43 -20 16 -23 52 -17 43 7 -3 8 -6 16 -6 19 0 9 -61 34 -82 34 -13 0
-37 -9 -55 -19z"/>
<path d="M1769 333 c-6 -16 -26 -67 -44 -115 l-33 -88 23 0 c16 0 25 7 29 25
6 23 11 25 60 25 49 0 54 -2 60 -25 5 -18 13 -25 30 -25 l25 0 -31 83 c-17 45
-35 97 -41 115 -8 26 -15 32 -39 32 -22 0 -31 -6 -39 -27z"/>
<path d="M2120 245 l0 -115 85 0 c78 0 85 2 85 20 0 18 -7 20 -65 20 l-65 0 0
30 0 30 60 0 c53 0 60 2 60 20 0 18 -7 20 -60 20 -57 0 -60 1 -60 25 0 24 2
25 65 25 58 0 65 2 65 20 0 18 -7 20 -85 20 l-85 0 0 -115z"/>
<path d="M2330 245 l0 -115 25 0 c23 0 25 3 25 50 0 42 3 50 19 50 12 0 31
-19 51 -50 24 -37 38 -50 56 -50 32 0 30 10 -11 64 -23 30 -30 46 -21 46 18 0
46 38 46 62 0 10 -9 27 -20 38 -16 16 -33 20 -95 20 l-75 0 0 -115z"/>
<path d="M2650 245 l0 -115 25 0 c23 0 24 3 27 70 l3 70 40 -67 c28 -47 47
-69 63 -71 22 -3 22 -2 22 112 0 108 -1 116 -20 116 -17 0 -19 -8 -22 -72 l-3
-73 -44 73 c-34 57 -48 72 -67 72 -24 0 -24 0 -24 -115z"/>
<path d="M2923 341 c-67 -42 -63 -158 7 -194 40 -21 97 -18 135 7 20 13 25 25
25 56 l0 40 -50 0 c-43 0 -50 -3 -50 -20 0 -15 7 -20 25 -20 28 0 34 -24 9
-34 -55 -21 -104 12 -104 69 0 22 8 43 20 55 26 26 75 26 93 0 9 -13 20 -18
31 -14 21 8 20 17 -2 44 -26 32 -97 38 -139 11z"/>
</g>
</svg>
